<?xml version="1.0" encoding="UTF-8" standalone="no"?>
<!-- Created with Inkscape (http://www.inkscape.org/) -->

<svg
   xmlns:dc="http://purl.org/dc/elements/1.1/"
   xmlns:cc="http://creativecommons.org/ns#"
   xmlns:rdf="http://www.w3.org/1999/02/22-rdf-syntax-ns#"
   xmlns:svg="http://www.w3.org/2000/svg"
   xmlns="http://www.w3.org/2000/svg"
   xmlns:sodipodi="http://sodipodi.sourceforge.net/DTD/sodipodi-0.dtd"
   xmlns:inkscape="http://www.inkscape.org/namespaces/inkscape"
   width="652.64563mm"
   height="112.88889mm"
   viewBox="0 0 2312.5239 400.00002"
   id="svg5547"
   version="1.1"
   inkscape:version="0.91 r13725"
   sodipodi:docname="roced_logo.svg">
  <defs
     id="defs5549" />
  <sodipodi:namedview
     id="base"
     pagecolor="#ffffff"
     bordercolor="#666666"
     borderopacity="1.0"
     inkscape:pageopacity="0.0"
     inkscape:pageshadow="2"
     inkscape:zoom="0.35"
     inkscape:cx="1273.9658"
     inkscape:cy="193.77914"
     inkscape:document-units="px"
     inkscape:current-layer="g6471"
     showgrid="false"
     fit-margin-top="0"
     fit-margin-left="0"
     fit-margin-right="0"
     fit-margin-bottom="0"
     inkscape:window-width="1916"
     inkscape:window-height="1045"
     inkscape:window-x="0"
     inkscape:window-y="16"
     inkscape:window-maximized="0" />
  <metadata
     id="metadata5552">
    <rdf:RDF>
      <cc:Work
         rdf:about="">
        <dc:format>image/svg+xml</dc:format>
        <dc:type
           rdf:resource="http://purl.org/dc/dcmitype/StillImage" />
        <dc:title></dc:title>
      </cc:Work>
    </rdf:RDF>
  </metadata>
  <g
     inkscape:label="Ebene 1"
     inkscape:groupmode="layer"
     id="layer1"
     transform="translate(287.977,226.47958)">
    <g
       id="g6267"
       transform="translate(72.570927,182.07549)" />
    <g
       id="g6269"
       transform="translate(72.570927,182.07549)" />
    <g
       id="g6271"
       transform="translate(72.570927,182.07549)" />
    <g
       id="g6273"
       transform="translate(72.570927,182.07549)" />
    <g
       id="g6275"
       transform="translate(72.570927,182.07549)" />
    <g
       id="g6277"
       transform="translate(72.570927,182.07549)" />
    <g
       id="g6279"
       transform="translate(72.570927,182.07549)" />
    <g
       id="g6281"
       transform="translate(72.570927,182.07549)" />
    <g
       id="g6283"
       transform="translate(72.570927,182.07549)" />
    <g
       id="g6285"
       transform="translate(72.570927,182.07549)" />
    <g
       id="g6287"
       transform="translate(72.570927,182.07549)" />
    <g
       id="g6289"
       transform="translate(72.570927,182.07549)" />
    <g
       id="g6291"
       transform="translate(72.570927,182.07549)" />
    <g
       id="g6293"
       transform="translate(72.570927,182.07549)" />
    <g
       id="g6295"
       transform="translate(72.570927,182.07549)" />
    <g
       id="g6469"
       transform="translate(129.78182,262.90559)">
      <g
         id="g6471"
         transform="translate(1900.3039,0)">
        <g
           id="g6473"
           transform="matrix(0.20262394,0.69636281,-0.69636281,0.20262394,-2104.5729,-503.96693)">
          <path
             inkscape:connector-curvature="0"
             d="M 482.4849,105.23262 262.64458,62.567794 c -8.89921,-7.19952 -14.33493,-11.6103 -14.55492,-11.74846 C 183.6275,9.4912741 107.33147,-6.5221859 32.079333,3.8878141 c -12.18487,3.16079 -20.64562,12.7250199 -15.38989,27.0691799 24.41409,68.09566 71.24883,127.111856 132.280687,166.208856 0.21999,0.13817 8.27276,4.04523 21.18073,10.23463 l 135.08539,183.84518 c 11.45935,13.8689 29.68683,8.29118 33.57671,-7.67146 l 12.4127,-88.75721 c 10.7899,5.16595 17.3641,8.37449 17.3641,8.37449 5.67883,3.41313 16.48979,2.07363 24.95559,-6.64384 l 43.93533,-69.95689 c 5.04289,-8.02964 3.58569,-18.53108 -3.66361,-24.69438 0,0 -6.59704,-5.3702 -17.22802,-13.96407 l 72.6233,-48.71887 c 15.44471,-11.1599 9.62655,-29.61507 -6.72745,-33.98081 z M 308.27826,331.574 l -65.26883,-88.15546 29.428,13.34355 c 15.35603,7.42011 30.38208,14.63297 43.73002,21.09869 L 308.27826,331.574 Z M 368.92099,261.7568 168.13633,165.18278 C 120.96385,134.78994 83.301383,90.353604 59.957573,39.725244 118.04631,36.251444 176.53497,51.434424 225.81277,82.382584 L 394.82627,220.50863 368.92099,261.7568 Z M 387.13647,163.76 C 368.26625,148.38109 345.9325,130.21348 324.76008,113.00527 L 431.9354,133.45742 387.13647,163.76 Z"
             id="path6475"
             style="fill:#4664aa;fill-opacity:1" />
          <path
             inkscape:connector-curvature="0"
             d="m 462.41662,266.8689 c -9.1296,-5.7337 -20.32183,-3.17656 -26.07599,5.8635 -5.68508,8.93006 -2.69566,20.77723 6.21394,26.37277 l 34.31847,21.55317 c 8.90961,5.59554 20.54953,2.93611 26.14507,-5.9735 5.59554,-8.9096 2.93611,-20.54952 -5.9735,-26.14506 L 462.41662,266.8689 Z"
             id="path6477"
             style="fill:#df9b1b;fill-opacity:1" />
        </g>
        <g
           transform="matrix(3.5704324,0,0,3.5704324,5042.3971,-606.10561)"
           style="font-style:normal;font-variant:normal;font-weight:normal;font-stretch:normal;font-size:160px;line-height:125%;font-family:'Bruno Ace SC';-inkscape-font-specification:'Bruno Ace SC';letter-spacing:0px;word-spacing:0px;fill:#000000;fill-opacity:1;stroke:none;stroke-width:1px;stroke-linecap:butt;stroke-linejoin:miter;stroke-opacity:1"
           id="flowRoot6557">
          <path
             d="m -1851.5508,144.72209 -21.6406,0 -33.5938,-32.03125 -49.0625,0 0,-15.781248 64.2969,0 q 5,0 9.375,-1.875 4.375,-1.953125 7.5781,-5.234375 3.2813,-3.28125 5.1563,-7.65625 1.875,-4.453125 1.875,-9.453125 0,-5 -1.875,-9.375 -1.875,-4.375 -5.1563,-7.578125 -3.2031,-3.28125 -7.5781,-5.15625 -4.375,-1.875 -9.375,-1.875 l -73.2812,0 0,96.015623 -16.0157,0 0,-112.031248 89.2969,0 q 8.2813,0 15.5469,3.203125 7.2656,3.125 12.6562,8.59375 5.4688,5.390625 8.5938,12.65625 3.2031,7.265625 3.2031,15.546875 0,7.5 -2.5781,14.21875 -2.5781,6.640625 -7.1094,11.953125 -4.5312,5.234373 -10.7031,8.750003 -6.0938,3.4375 -13.2031,4.60937 l 33.5937,32.5 z"
             style="font-style:normal;font-variant:normal;font-weight:normal;font-stretch:normal;font-size:160px;font-family:'Bruno Ace SC';-inkscape-font-specification:'Bruno Ace SC'"
             id="path6566"
             inkscape:connector-curvature="0" />
          <path
             d="m -1732.4298,102.71037 q 0,8.73047 -2.7538,16.40626 -2.7539,7.67577 -7.8516,13.35937 -5.039,5.68359 -12.1289,8.96484 -7.0899,3.28125 -15.7617,3.28125 l -27.9492,0 q -8.7305,0 -15.879,-3.28125 -7.1484,-3.28125 -12.246,-8.96484 -5.0391,-5.6836 -7.793,-13.35937 -2.7539,-7.67579 -2.7539,-16.40626 0,-8.671872 2.7539,-16.28906 2.7539,-7.675781 7.793,-13.359375 5.0976,-5.742187 12.246,-9.023437 7.1485,-3.339844 15.879,-3.339844 l 27.9492,0 q 8.6718,0 15.7617,3.339844 7.0899,3.28125 12.1289,9.023437 5.0977,5.683594 7.8516,13.359375 2.7538,7.617188 2.7538,16.28906 z m -12.0117,0 q 0,-6.210935 -1.8164,-11.660154 -1.8163,-5.449218 -5.2734,-9.492187 -3.3985,-4.101563 -8.3203,-6.445313 -4.8633,-2.402344 -11.0742,-2.402344 l -27.9492,0 q -6.211,0 -11.1915,2.402344 -4.9218,2.34375 -8.3789,6.445313 -3.3984,4.042969 -5.2734,9.492187 -1.8164,5.449219 -1.8164,11.660154 0,6.21094 1.8164,11.71876 1.875,5.44921 5.2734,9.55077 3.4571,4.04298 8.3789,6.38673 4.9805,2.34375 11.1915,2.34375 l 27.9492,0 q 6.2109,0 11.0742,-2.34375 4.9218,-2.34375 8.3203,-6.38673 3.4571,-4.10156 5.2734,-9.55077 1.8164,-5.50782 1.8164,-11.71876 z"
             style="font-style:normal;font-variant:normal;font-weight:normal;font-stretch:normal;font-size:160px;font-family:'Bruno Ace SC';-inkscape-font-specification:'Bruno Ace SC'"
             id="path6568"
             inkscape:connector-curvature="0" />
          <path
             d="m -1629.0312,144.72209 -54.0821,0 q -8.7304,0 -15.8789,-3.28125 -7.1484,-3.28125 -12.2461,-8.96484 -5.0391,-5.6836 -7.7929,-13.35937 -2.754,-7.67579 -2.754,-16.40626 0,-8.671872 2.754,-16.28906 2.7538,-7.675781 7.7929,-13.359375 5.0977,-5.742187 12.2461,-9.023437 7.1485,-3.339844 15.8789,-3.339844 l 54.0821,0 0,12.011718 -54.0821,0 q -6.211,0 -11.1914,2.402344 -4.9219,2.34375 -8.3789,6.445313 -3.3984,4.042969 -5.2734,9.492187 -1.8165,5.449219 -1.8165,11.660154 0,6.21094 1.8165,11.71876 1.875,5.44921 5.2734,9.55077 3.457,4.04298 8.3789,6.38673 4.9804,2.34375 11.1914,2.34375 l 54.0821,0 0,12.01171 z"
             style="font-style:normal;font-variant:normal;font-weight:normal;font-stretch:normal;font-size:160px;font-family:'Bruno Ace SC';-inkscape-font-specification:'Bruno Ace SC'"
             id="path6570"
             inkscape:connector-curvature="0" />
          <path
             d="m -1527.6641,144.72209 -86.8945,0 0,-84.023436 86.8945,0 0,12.011718 -74.8828,0 0,60.000008 74.8828,0 0,12.01171 z m -10.1953,-35.97656 -58.7109,0 0,-12.01172 58.7109,0 0,12.01172 z"
             style="font-style:normal;font-variant:normal;font-weight:normal;font-stretch:normal;font-size:160px;font-family:'Bruno Ace SC';-inkscape-font-specification:'Bruno Ace SC'"
             id="path6572"
             inkscape:connector-curvature="0" />
          <path
             d="m -1413.8164,102.71037 q 0,8.73047 -2.8125,16.40626 -2.7539,7.67577 -7.8516,13.35937 -5.0976,5.68359 -12.2461,8.96484 -7.0898,3.28125 -15.7617,3.28125 l -42.3633,0 0,-12.01171 42.3633,0 q 6.2109,0 11.1328,-2.34375 4.9805,-2.34375 8.3789,-6.38673 3.4571,-4.10156 5.2735,-9.55077 1.875,-5.50782 1.875,-11.71876 0,-6.210935 -1.875,-11.660154 -1.8164,-5.449218 -5.2735,-9.492187 -3.3984,-4.101563 -8.3789,-6.445313 -4.9219,-2.402344 -11.1328,-2.402344 l -48.3398,0 0,72.011718 -12.0118,0 0,-84.023436 60.3516,0 q 8.6719,0 15.7617,3.339844 7.1485,3.28125 12.2461,9.023437 5.0977,5.683594 7.8516,13.359375 2.8125,7.617188 2.8125,16.28906 z"
             style="font-style:normal;font-variant:normal;font-weight:normal;font-stretch:normal;font-size:160px;font-family:'Bruno Ace SC';-inkscape-font-specification:'Bruno Ace SC'"
             id="path6574"
             inkscape:connector-curvature="0" />
        </g>
      </g>
    </g>
    <g
       id="g6479"
       transform="translate(129.78182,262.90559)" />
    <g
       id="g6481"
       transform="translate(129.78182,262.90559)" />
    <g
       id="g6483"
       transform="translate(129.78182,262.90559)" />
    <g
       id="g6485"
       transform="translate(129.78182,262.90559)" />
    <g
       id="g6487"
       transform="translate(129.78182,262.90559)" />
    <g
       id="g6489"
       transform="translate(129.78182,262.90559)" />
    <g
       id="g6491"
       transform="translate(129.78182,262.90559)" />
    <g
       id="g6493"
       transform="translate(129.78182,262.90559)" />
    <g
       id="g6495"
       transform="translate(129.78182,262.90559)" />
    <g
       id="g6497"
       transform="translate(129.78182,262.90559)" />
    <g
       id="g6499"
       transform="translate(129.78182,262.90559)" />
    <g
       id="g6501"
       transform="translate(129.78182,262.90559)" />
    <g
       id="g6503"
       transform="translate(129.78182,262.90559)" />
    <g
       id="g6505"
       transform="translate(129.78182,262.90559)" />
    <g
       id="g6507"
       transform="translate(129.78182,262.90559)" />
  </g>
</svg>
